<mxfile host="app.diagrams.net" modified="2023-08-05T09:48:47.597Z" agent="Mozilla/5.0 (X11; Ubuntu; Linux x86_64; rv:109.0) Gecko/20100101 Firefox/116.0" etag="tXO_UNrWUJF4PwC6aPXB" version="21.6.6">
  <diagram name="Stránka-1" id="6RW_hrpFbYXy2UKJol02">
    <mxGraphModel dx="1366" dy="795" grid="1" gridSize="10" guides="1" tooltips="1" connect="1" arrows="1" fold="1" page="1" pageScale="1" pageWidth="827" pageHeight="1169" math="0" shadow="0">
      <root>
        <mxCell id="0" />
        <mxCell id="1" parent="0" />
        <mxCell id="mziLdGlXHOmQ6duhwN0D-1" value="&lt;div&gt;Systém&lt;/div&gt;" style="rounded=0;whiteSpace=wrap;html=1;fontStyle=1" vertex="1" parent="1">
          <mxGeometry x="320" y="120" width="120" height="60" as="geometry" />
        </mxCell>
        <mxCell id="mziLdGlXHOmQ6duhwN0D-2" value="výstup y" style="endArrow=classic;html=1;rounded=0;exitX=1;exitY=0.5;exitDx=0;exitDy=0;verticalAlign=bottom;" edge="1" parent="1" source="mziLdGlXHOmQ6duhwN0D-1">
          <mxGeometry width="50" height="50" relative="1" as="geometry">
            <mxPoint x="390" y="440" as="sourcePoint" />
            <mxPoint x="520" y="150" as="targetPoint" />
          </mxGeometry>
        </mxCell>
        <mxCell id="mziLdGlXHOmQ6duhwN0D-3" value="&lt;div&gt;vstup&amp;nbsp; &lt;i&gt;u&lt;/i&gt;&lt;/div&gt;" style="endArrow=classic;html=1;rounded=0;entryX=0;entryY=0.5;entryDx=0;entryDy=0;verticalAlign=bottom;" edge="1" parent="1" target="mziLdGlXHOmQ6duhwN0D-1">
          <mxGeometry width="50" height="50" relative="1" as="geometry">
            <mxPoint x="240" y="150" as="sourcePoint" />
            <mxPoint x="440" y="390" as="targetPoint" />
          </mxGeometry>
        </mxCell>
      </root>
    </mxGraphModel>
  </diagram>
</mxfile>
